<svg xmlns="http://www.w3.org/2000/svg" viewBox="0 0 1024 1024">
<path fill="#31373A" d="M800 64H224c-17.673 0-32 14.327-32 32v288h192c0-70.692 57.308-128 128-128s128 57.308 128 128h192V96c0-17.673-14.327-32-32-32z"/><path fill="#DCDEDF" d="M512 64c-176.731 0-320 143.269-320 320v576h640V384c0-176.731-143.269-320-320-320zm0 448c-70.692 0-128-57.308-128-128s57.308-128 128-128 128 57.308 128 128-57.308 128-128 128z"/><circle fill="none" stroke="#31373A" stroke-width="40" stroke-miterlimit="10" cx="512" cy="384" r="128"/><g fill="#31373A"><path d="M432 864h32v32h-32zM496 864h32v32h-32zM560 864h32v32h-32zM432 800h32v32h-32zM432 736h32v32h-32zM496 736h96v96h-96z"/></g></svg>