<svg xmlns="http://www.w3.org/2000/svg" viewBox="0 0 1024 1024">
<path fill="#DCDEDF" d="M128 544v256c0 160 128 160 384 160s384 0 384-160V224C896 64 768 64 512 64s-384 0-384 160v320z"/><path fill="#31373A" d="M800 704c0 17.673-14.327 32-32 32H256c-17.673 0-32-14.327-32-32V320c0-17.673 14.327-32 32-32h512c17.673 0 32 14.327 32 32v384z"/><path fill="#DCDEDF" d="M512.141 384.714c-34.923 0-63.185 28.263-63.185 63.185v23.682c-12.264 2.22-24.562 5.181-24.562 9.021v123.585s0 3.419 3.841 5.04c13.919 5.638 68.682 25.02 81.263 29.461 1.621.599 2.079.599 2.502.599.599 0 .881 0 2.502-.599 12.58-4.441 67.483-23.823 81.403-29.461 3.559-1.48 3.7-4.898 3.7-4.898V480.602c0-3.841-12.122-6.942-24.421-9.021v-23.682c.176-34.922-28.262-63.185-63.043-63.185zm0 30.201c20.58 0 33.02 12.439 33.02 33.02v20.579c-23.081-1.62-42.781-1.62-66.004 0v-20.579c-.001-20.616 12.439-33.02 32.984-33.02zM512 498.82c28.721 0 52.824 2.221 52.824 6.202v77.105c0 1.197-.141 1.338-1.198 1.762-1.022.457-48.983 17.76-48.983 17.76s-1.938.6-2.502.6c-.599 0-2.502-.739-2.502-.739s-47.961-17.304-48.983-17.762c-1.021-.458-1.197-.599-1.197-1.762v-77.104c-.283-3.982 23.82-6.062 52.541-6.062z"/></svg>